<?xml version="1.0" encoding="UTF-8" standalone="no"?>
<!-- Generator: Adobe Illustrator 14.0.0, SVG Export Plug-In . SVG Version: 6.00 Build 43363)  -->

<svg
   version="1.2"
   x="0px"
   y="0px"
   width="595.27502"
   height="841.89001"
   viewBox="0 0 595.275 841.89"
   xml:space="preserve"
   id="svg5614"
   sodipodi:docname="AD9833-Module.svg"
   inkscape:version="1.2.2 (732a01da63, 2022-12-09)"
   inkscape:export-filename="AD9833-Module.svg"
   inkscape:export-xdpi="96"
   inkscape:export-ydpi="96"
   xmlns:inkscape="http://www.inkscape.org/namespaces/inkscape"
   xmlns:sodipodi="http://sodipodi.sourceforge.net/DTD/sodipodi-0.dtd"
   xmlns="http://www.w3.org/2000/svg"
   xmlns:svg="http://www.w3.org/2000/svg"><defs
   id="defs5618">
	
	
	
</defs><sodipodi:namedview
   id="namedview5616"
   pagecolor="#505050"
   bordercolor="#ffffff"
   borderopacity="1"
   inkscape:showpageshadow="0"
   inkscape:pageopacity="0"
   inkscape:pagecheckerboard="1"
   inkscape:deskcolor="#505050"
   showgrid="false"
   inkscape:zoom="15.279906"
   inkscape:cx="302.25972"
   inkscape:cy="459.98321"
   inkscape:window-width="1920"
   inkscape:window-height="991"
   inkscape:window-x="-9"
   inkscape:window-y="-9"
   inkscape:window-maximized="1"
   inkscape:current-layer="svg5614" />

<g
   id="g1721"
   transform="matrix(0.58796049,0,0,0.56810051,136.93675,211.81774)"><rect
     style="fill:#ffffff;stroke:#000000;stroke-width:0.375832;stroke-linejoin:bevel;stroke-opacity:0;paint-order:stroke fill markers"
     id="rect1031"
     width="111.25185"
     height="37.393909"
     x="224.90469"
     y="434.07629" /><path
     id="path64"
     style="fill:#000080;stroke-width:4.31455"
     d="m 224.09659,399.08398 c 1e-5,0.008 0.13306,72.64482 0,72.69532 h 112.79687 v -72.69532 z m 98.73047,5.60547 a 8.099925,8.0999241 0 0 1 8.09961,8.09961 8.099925,8.0999241 0 0 1 -8.09961,8.10156 8.099925,8.0999241 0 0 1 -8.09961,-8.10156 8.099925,8.0999241 0 0 1 8.09961,-8.09961 z m -86.50586,0.25391 a 8.099925,8.0999241 0 0 1 8.09961,8.09961 8.099925,8.0999241 0 0 1 -8.09961,8.09961 8.099925,8.0999241 0 0 1 -8.09961,-8.09961 8.099925,8.0999241 0 0 1 8.09961,-8.09961 z m 57.95312,30.00195 c 0.13844,0 0.26931,0.0749 0.32031,0.18164 0.0219,0.0565 0.022,0.006 0.0293,0.67188 0,0.5653 -10e-4,0.61006 0.006,0.6289 0.0219,0.0628 0.0667,0.12485 0.125,0.15625 0.0219,0.0188 0.12313,0.0634 0.42188,0.19532 0.48815,0.21355 1.0637,0.45814 1.10742,0.4707 0.051,0.0188 0.13168,0.0382 0.19726,0.0508 0.0656,0.006 0.20448,0.006 0.27735,0 0.0583,-0.0126 0.14573,-0.0319 0.18945,-0.0508 0.051,-0.0126 0.61923,-0.25715 1.10742,-0.4707 0.30603,-0.13191 0.40054,-0.17647 0.42969,-0.19532 0.051,-0.0314 0.0953,-0.0934 0.11719,-0.15625 0.007,-0.0188 0.006,-0.0636 0.0137,-0.6289 0,-0.6658 1.9e-4,-0.61535 0.0293,-0.67188 0.051,-0.10678 0.17459,-0.18164 0.32032,-0.18164 0.16759,0 0.30732,0.0997 0.34375,0.24414 0.007,0.044 0.007,1.18834 0,1.26367 -0.0437,0.27637 -0.21921,0.52156 -0.4961,0.66602 -0.051,0.0251 -1.50139,0.65261 -1.57421,0.67774 -0.13845,0.0502 -0.28453,0.087 -0.4375,0.0996 -0.0874,0.0126 -0.28314,0.0126 -0.36329,0 -0.1603,-0.0126 -0.30687,-0.0494 -0.44531,-0.0996 -0.0729,-0.0251 -1.52321,-0.65262 -1.57422,-0.67774 -0.2696,-0.14446 -0.44456,-0.38421 -0.48828,-0.6543 -0.007,-0.0502 -0.006,-0.0875 -0.006,-0.64648 0,-0.50249 -0.001,-0.60378 0.006,-0.62891 0.0291,-0.14446 0.16888,-0.24414 0.34375,-0.24414 z m -25.63086,0.32813 c 0.22588,0 0.39423,0.18852 0.33594,0.37695 -0.0291,0.0942 -0.10893,0.16977 -0.21094,0.20117 -0.0219,0.006 -0.24107,0.0622 -0.49609,0.125 l -0.45117,0.11914 v 0.66016 0.66016 l 0.46484,0.11914 c 0.25503,0.0628 0.47371,0.11872 0.48828,0.125 0.0583,0.0188 0.12373,0.0693 0.16016,0.11328 0.13115,0.17587 0.0222,0.40873 -0.21094,0.45898 -0.0437,0.006 -0.11696,0.006 -0.16797,0 -0.0583,-0.0126 -4.69937,-1.18708 -4.72851,-1.19336 -0.051,-0.0188 -0.0793,-0.0322 -0.12305,-0.0762 -0.0583,-0.044 -0.0811,-0.0876 -0.0957,-0.15039 -0.007,-0.0314 -0.007,-0.10141 0,-0.13281 0.007,-0.0126 0.0147,-0.0378 0.0293,-0.0566 0.0364,-0.0628 0.0873,-0.10532 0.16016,-0.13672 0.0291,-0.0126 0.46024,-0.11945 2.39844,-0.60938 1.29697,-0.32661 2.36824,-0.59765 2.38281,-0.59765 0.007,-0.006 0.0353,-0.006 0.0644,-0.006 z m -1.52344,0.99804 -0.96093,0.24024 c -0.52463,0.1319 -0.96094,0.24414 -0.96094,0.24414 0,0 0.4285,0.10596 0.95312,0.24414 l 0.96875,0.24023 v -0.24609 -0.48242 z m 44.56446,2.69532 c 0.14573,0 0.24046,0.008 0.3789,0.0391 0.16759,0.0377 0.18212,0.0439 1.02735,0.4082 0.40804,0.17587 0.76525,0.33314 0.78711,0.34571 0.0947,0.0502 0.19809,0.12384 0.26367,0.19921 0.12387,0.13191 0.20275,0.2894 0.22461,0.45899 0.007,0.0565 0.008,0.0823 0.008,0.66015 v 0.60352 l -0.008,0.0312 c -0.051,0.1319 -0.18097,0.21875 -0.33399,0.21875 -0.1603,0 -0.29274,-0.0869 -0.34375,-0.21875 -0.007,-0.0251 -0.006,-0.0379 -0.006,-0.20117 v -0.16992 h -1.99804 -1.9961 l -0.008,0.16992 c 0,0.16331 10e-4,0.17605 -0.006,0.20117 -0.0291,0.0879 -0.10254,0.15567 -0.19726,0.19336 -0.0874,0.0314 -0.19772,0.0314 -0.28516,0 -0.10201,-0.044 -0.18132,-0.13039 -0.20312,-0.22461 v -0.60937 c 0,-0.50877 5.2e-4,-0.60447 0.008,-0.64844 0.0364,-0.27009 0.21868,-0.5196 0.48828,-0.66406 0.0219,-0.0126 0.37764,-0.16984 0.79297,-0.34571 0.83794,-0.3643 0.85247,-0.37051 1.02734,-0.4082 0.13116,-0.0314 0.22589,-0.0391 0.37891,-0.0391 z m -61.20313,0.21679 c 0.14573,0 0.24047,0.006 0.37891,0.0371 0.16759,0.0377 0.18407,0.0439 1.0293,0.40821 0.40804,0.17587 0.76329,0.33314 0.78515,0.3457 0.0947,0.0503 0.1981,0.1258 0.26367,0.20117 0.12387,0.1319 0.20275,0.2894 0.22461,0.45899 0.007,0.0565 0.008,0.0823 0.008,0.66015 v 0.60156 l -0.008,0.0332 c -0.051,0.1319 -0.18097,0.21875 -0.33398,0.21875 -0.1603,0 -0.29275,-0.0869 -0.34375,-0.21875 -0.007,-0.0251 -0.006,-0.0379 -0.006,-0.20117 v -0.16993 h -1.99805 -1.99609 l -0.006,0.16993 c 0,0.1633 -5.3e-4,0.17604 -0.008,0.20117 -0.0291,0.0879 -0.10254,0.15567 -0.19727,0.19336 -0.0874,0.0314 -0.19576,0.0314 -0.2832,0 -0.10201,-0.044 -0.18322,-0.13235 -0.20508,-0.22657 v -0.60937 c 0,-0.50877 5.3e-4,-0.60252 0.008,-0.64649 0.0364,-0.27007 0.21868,-0.52155 0.48828,-0.66601 0.0219,-0.0126 0.37764,-0.16983 0.79297,-0.3457 0.83794,-0.36431 0.85442,-0.37052 1.0293,-0.40821 0.13116,-0.0314 0.22394,-0.0371 0.37695,-0.0371 z m 32.10156,0.20703 c 0.0947,10e-6 0.18105,0.0309 0.25391,0.0938 0.1093,0.10674 0.12545,0.26347 0.0234,0.38281 -0.007,0.0126 -0.43136,0.44003 -0.94141,0.95508 l -0.92383,0.92968 h 0.82227 c 0.92538,0 0.83782,-1.5e-4 0.91797,0.0312 0.0729,0.0314 0.12515,0.0759 0.1543,0.13868 0.0437,0.0753 0.0506,0.15076 0.0215,0.23242 -0.0219,0.044 -0.0442,0.0697 -0.0879,0.10742 -0.0583,0.0503 -0.10878,0.0753 -0.18164,0.0879 -0.051,0.006 -4.7654,0.006 -4.81641,0 -0.0729,-0.0126 -0.1253,-0.0376 -0.18359,-0.0879 -0.0583,-0.044 -0.0792,-0.0876 -0.0937,-0.15039 -0.007,-0.0314 -0.007,-0.10141 0,-0.13281 0.007,-0.0126 0.0147,-0.0378 0.0293,-0.0566 0.0364,-0.0628 0.0873,-0.10727 0.16015,-0.13868 0.0729,-0.0314 -0.0152,-0.0312 0.91016,-0.0312 h 0.82422 l -0.92578,-0.92968 c -0.50277,-0.51505 -0.92488,-0.94252 -0.93946,-0.95508 -0.0656,-0.0879 -0.0886,-0.18076 -0.0449,-0.28125 0.0292,-0.0691 0.0962,-0.13224 0.18359,-0.16992 0.13116,-0.0503 0.29057,-0.0259 0.39258,0.0684 0.0146,0.0125 0.4883,0.49092 1.05664,1.0625 0.56835,0.57783 1.03569,1.04296 1.04297,1.04296 0,0 0.46489,-0.46513 1.0332,-1.04296 0.56835,-0.57158 1.04207,-1.04997 1.05665,-1.0625 0.0656,-0.0628 0.15387,-0.0937 0.25585,-0.0938 z m 14.17579,0.0449 h 2.55664 l -0.006,0.39648 v 0.39649 l -2.07031,0.78515 -2.07618,0.78516 h 1.92969 c 1.84347,0 1.93179,-4.2e-4 1.96094,0.006 0.10201,0.0314 0.17503,0.0867 0.21875,0.16211 0.0437,0.0754 0.0506,0.15076 0.0215,0.23242 -0.0219,0.044 -0.0442,0.0697 -0.0879,0.10742 -0.0437,0.044 -0.072,0.0573 -0.12305,0.0762 -0.0655,0.0188 0.12395,0.0176 -2.62304,0.0176 h -2.53516 v -0.39453 -0.39648 l 0.10938,-0.043 2.07617,-0.78516 1.9668,-0.74219 -1.93165,-0.006 c -1.79242,0 -1.92983,4.2e-4 -1.95898,-0.006 -0.0729,-0.0188 -0.11696,-0.0439 -0.16797,-0.0879 -0.0364,-0.0377 -0.0577,-0.0639 -0.0723,-0.10156 -0.0364,-0.0817 -0.0301,-0.15663 0.0137,-0.23828 0.0437,-0.0754 0.12455,-0.13113 0.22656,-0.15625 0.0219,-0.006 0.1313,-0.008 2.57227,-0.008 z m 14.99218,0.13476 c -0.12387,-0.006 -0.23302,-5.7e-4 -0.34961,0.0371 -0.051,0.0126 -0.10893,0.0384 -0.40039,0.16406 -1.07111,0.46481 -1.15249,0.50265 -1.18164,0.52149 -0.0583,0.0377 -0.10118,0.0934 -0.12304,0.15625 -0.007,0.0188 -0.008,0.0451 -0.008,0.1582 l -0.008,0.13086 h 2.00391 1.99804 v -0.13086 c -0.007,-0.15074 -0.008,-0.15678 -0.0371,-0.20703 -0.0218,-0.044 -0.0593,-0.0823 -0.0957,-0.10742 -0.0364,-0.0188 -0.11639,-0.0567 -1.1875,-0.52149 -0.29146,-0.12562 -0.3421,-0.1515 -0.40039,-0.16406 -0.0729,-0.0251 -0.13079,-0.0308 -0.21094,-0.0371 z m -48.14843,0.19336 h 0.48046 c 0.52463,0 0.51646,6.9e-4 0.58204,0.0195 0.0802,0.0314 0.1603,0.0946 0.18945,0.16992 0.0219,0.0377 0.0293,0.063 0.0293,0.11329 0,0.044 -0.0153,0.0873 -0.0371,0.125 -0.0364,0.0691 -0.10931,0.12526 -0.18946,0.15039 -0.051,0.0188 -0.0789,0.0195 -0.22461,0.0195 h -0.13085 v 0.29492 0.28906 h 2.19921 c 2.10579,0 2.20133,-8.4e-4 2.23047,0.0117 0.10201,0.0251 0.17503,0.0828 0.21875,0.1582 0.0437,0.0754 0.0506,0.15077 0.0215,0.23243 -0.0219,0.044 -0.0442,0.0697 -0.0879,0.10742 -0.0437,0.044 -0.072,0.0554 -0.12305,0.0742 -0.0656,0.0188 0.0941,0.0195 -2.28125,0.0195 h -2.17773 v 0.28906 0.28906 h 0.13085 c 0.14573,0 0.17413,0.005 0.23243,0.0234 0.0802,0.0251 0.1603,0.0887 0.18945,0.16406 0.0219,0.044 0.0293,0.0693 0.0293,0.11328 0,0.0503 -0.0153,0.0951 -0.0371,0.13282 -0.0364,0.0691 -0.10931,0.12526 -0.18946,0.15039 -0.0656,0.0188 -0.0569,0.0176 -0.57422,0.0176 h -0.48046 v -1.48243 z m -13.05469,0.0234 c -0.12387,-0.006 -0.23303,-5.8e-4 -0.34961,0.0371 -0.051,0.0126 -0.10893,0.0384 -0.40039,0.16406 -1.07111,0.4648 -1.1525,0.50264 -1.18164,0.52149 -0.0583,0.0377 -0.10119,0.0934 -0.12305,0.15625 -0.007,0.0188 -0.008,0.0451 -0.008,0.1582 l -0.006,0.13086 h 2.00195 1.99805 v -0.13086 c -0.007,-0.15075 -0.008,-0.15874 -0.0371,-0.20899 -0.0219,-0.044 -0.0573,-0.0803 -0.0937,-0.10546 -0.0364,-0.0188 -0.11834,-0.0567 -1.18945,-0.52149 -0.29146,-0.12562 -0.3421,-0.1515 -0.40039,-0.16406 -0.0729,-0.0251 -0.13079,-0.0308 -0.21094,-0.0371 z m -18.55469,3.23437 c 0.13844,0 0.26931,0.0768 0.32031,0.1836 0.0219,0.0565 0.022,0.006 0.0293,0.67187 0,0.5653 -0.001,0.60811 0.006,0.62696 0.0219,0.0628 0.0667,0.12679 0.125,0.1582 0.0219,0.0188 0.12313,0.0615 0.42187,0.19336 0.4882,0.21356 1.06371,0.46009 1.10743,0.47265 0.051,0.0188 0.13168,0.0363 0.19726,0.0488 0.0656,0.006 0.20448,0.006 0.27735,0 0.0583,-0.0126 0.14573,-0.03 0.18945,-0.0488 0.051,-0.0126 0.61923,-0.25909 1.10742,-0.47265 0.30603,-0.1319 0.40054,-0.17452 0.42969,-0.19336 0.051,-0.0314 0.0953,-0.0954 0.11719,-0.1582 0.007,-0.0189 0.006,-0.0617 0.0137,-0.62696 0,-0.66579 1.5e-4,-0.61534 0.0293,-0.67187 0.051,-0.10678 0.17458,-0.1836 0.32031,-0.1836 0.16759,0 0.30536,0.10163 0.34179,0.2461 0.007,0.044 0.007,1.18634 0,1.26172 -0.0437,0.27636 -0.21725,0.52155 -0.49414,0.66601 -0.051,0.0251 -1.50135,0.65261 -1.57422,0.67774 -0.13844,0.0503 -0.28448,0.089 -0.4375,0.10156 -0.0874,0.0126 -0.28313,0.0126 -0.36328,0 -0.1603,-0.0126 -0.30687,-0.0513 -0.44531,-0.10156 -0.0729,-0.0251 -1.52321,-0.65261 -1.57422,-0.67774 -0.2696,-0.14446 -0.44456,-0.38225 -0.48828,-0.65234 -0.007,-0.0503 -0.006,-0.0894 -0.006,-0.64844 0,-0.50249 -0.001,-0.60183 0.006,-0.62695 0.0292,-0.14447 0.16888,-0.2461 0.34375,-0.2461 z m 79.83008,0.4375 h 2.55859 l -0.008,0.39454 v 0.39648 l -2.07031,0.78516 -2.07617,0.78515 h 1.93164 c 1.84347,0 1.92984,-4.2e-4 1.95898,0.006 0.10201,0.0314 0.17503,0.0887 0.21875,0.16406 0.0437,0.0754 0.0526,0.15077 0.0234,0.23243 -0.0219,0.044 -0.0442,0.0678 -0.0879,0.10546 -0.0437,0.044 -0.074,0.0573 -0.125,0.0762 -0.0656,0.0188 0.12394,0.0195 -2.62305,0.0195 h -2.53515 v -0.39649 -0.39648 l 0.10937,-0.043 2.07617,-0.78516 1.9668,-0.74218 -1.92969,-0.006 c -1.79247,0 -1.93179,4.2e-4 -1.96094,-0.006 -0.0729,-0.0189 -0.11501,-0.0439 -0.16601,-0.0879 -0.0364,-0.0377 -0.0596,-0.0619 -0.0742,-0.0996 -0.0364,-0.0817 -0.0281,-0.15858 0.0156,-0.24024 0.0437,-0.0754 0.1226,-0.13112 0.22461,-0.15625 0.0219,-0.006 0.13131,-0.006 2.57227,-0.006 z m -61.20313,0.2168 h 2.5586 l -0.008,0.39453 v 0.39649 l -2.06836,0.78515 -2.07813,0.78516 h 1.93164 c 1.84348,0 1.93179,-4.2e-4 1.96094,0.006 0.10201,0.0314 0.17308,0.0887 0.2168,0.16406 0.0437,0.0754 0.0526,0.15077 0.0234,0.23242 -0.0219,0.044 -0.0442,0.0678 -0.0879,0.10547 -0.0437,0.044 -0.074,0.0573 -0.125,0.0762 -0.0656,0.0188 0.12394,0.0176 -2.62304,0.0176 h -2.53516 v -0.39453 -0.39648 l 0.10937,-0.043 2.07618,-0.78516 1.96875,-0.74219 -1.93164,-0.006 c -1.79247,0 -1.9318,4.3e-4 -1.96094,-0.006 -0.0729,-0.0188 -0.11501,-0.0439 -0.16602,-0.0879 -0.0364,-0.0377 -0.0596,-0.0639 -0.0742,-0.10156 -0.0364,-0.0817 -0.0281,-0.15663 0.0156,-0.23828 0.0437,-0.0754 0.1226,-0.13113 0.22461,-0.15625 0.0219,-0.006 0.13131,-0.006 2.57226,-0.006 z m 31.96289,0.20508 c 0.16759,0 0.30537,0.10163 0.3418,0.24609 0,0.0251 0.008,0.23184 0.008,1.375 v 1.34375 h -2.53515 c -2.747,0 -2.56528,10e-4 -2.63086,-0.0176 -0.051,-0.0188 -0.0813,-0.0322 -0.125,-0.0762 -0.0583,-0.044 -0.0792,-0.0876 -0.0937,-0.15039 -0.007,-0.0314 -0.007,-0.1014 0,-0.13281 0.0146,-0.0314 0.0431,-0.0862 0.0723,-0.11133 0.0364,-0.044 0.11073,-0.0886 0.1836,-0.10742 0.0219,-0.006 0.11492,-0.006 2.2207,-0.006 h 2.20899 v -1.04297 c 0,-0.88563 5.2e-4,-1.04909 0.008,-1.07422 0.0291,-0.14446 0.16695,-0.24609 0.34179,-0.24609 z m 12.01172,0.0469 h 0.37891 l 0.22461,0.15039 0.88281,0.58985 0.65625,0.43945 h 1.14258 c 1.2897,0.006 1.16008,-1.5e-4 1.24023,0.0312 0.0729,0.0314 0.1232,0.0759 0.15235,0.13867 0.0437,0.0754 0.0506,0.15077 0.0215,0.23243 -0.0219,0.044 -0.0442,0.0697 -0.0879,0.10742 -0.0437,0.044 -0.072,0.0554 -0.12305,0.0742 -0.0655,0.0188 5e-5,0.0195 -1.21679,0.0195 h -1.12891 l -0.88281,0.58984 -0.88086,0.5918 h -0.34375 c -0.38618,0 -0.40708,-6.9e-4 -0.47266,-0.0195 -0.051,-0.0188 -0.0798,-0.0322 -0.13086,-0.0762 -0.0583,-0.044 -0.0811,-0.0876 -0.0957,-0.1504 -0.007,-0.0314 -0.007,-0.0994 0,-0.13086 0.007,-0.0125 0.0147,-0.0378 0.0293,-0.0566 0.0364,-0.0628 0.0873,-0.10726 0.16015,-0.13867 0.0729,-0.0314 0.0587,-0.025 0.35743,-0.0312 h 0.26172 l 0.65624,-0.43945 c 0.5392,-0.3643 0.64844,-0.44099 0.64844,-0.44727 -0.007,0 -0.29921,-0.20077 -0.65625,-0.43945 l -0.65429,-0.43945 h -0.24024 c -0.2696,0 -0.28546,10e-4 -0.34375,-0.0176 -0.051,-0.0126 -0.0793,-0.0326 -0.12305,-0.0703 -0.0437,-0.0377 -0.0655,-0.0678 -0.0801,-0.10547 -0.0364,-0.0817 -0.0301,-0.15858 0.0137,-0.24024 0.0364,-0.0565 0.0873,-0.10573 0.16015,-0.13086 0.0729,-0.0314 0.0447,-0.0312 0.47461,-0.0312 z m 29.64844,0.1211 h 0.48047 c 0.52462,0 0.51841,-10e-4 0.58398,0.0176 0.0802,0.0314 0.16031,0.0945 0.18946,0.16992 0.0219,0.0377 0.0293,0.063 0.0293,0.11328 0,0.044 -0.0153,0.0873 -0.0371,0.125 -0.0364,0.0691 -0.10931,0.12527 -0.18946,0.15039 -0.051,0.0188 -0.0808,0.0195 -0.22656,0.0195 h -0.13086 v 0.29492 0.28907 h 2.20117 c 2.10579,0 2.19937,10e-4 2.22852,0.0137 0.10201,0.0251 0.17503,0.0809 0.21875,0.15625 0.0437,0.0754 0.0506,0.15077 0.0215,0.23242 -0.0219,0.044 -0.0422,0.0697 -0.0859,0.10742 -0.0437,0.044 -0.074,0.0554 -0.125,0.0742 -0.0656,0.0188 0.0961,0.0195 -2.27929,0.0195 h -2.17969 v 0.28906 0.28907 h 0.13086 c 0.14573,0 0.17608,0.007 0.23437,0.0254 0.0802,0.0251 0.16031,0.0867 0.18946,0.16211 0.0219,0.044 0.0293,0.0693 0.0293,0.11328 0,0.0503 -0.0153,0.0951 -0.0371,0.13281 -0.0364,0.0691 -0.10931,0.12527 -0.18946,0.15039 -0.0656,0.0188 -0.0588,0.0195 -0.57617,0.0195 h -0.48047 v -1.48242 z m -55.59961,0.20703 c 0.22588,0 0.39423,0.18852 0.33594,0.37695 -0.0291,0.0942 -0.10893,0.16977 -0.21094,0.20117 -0.0219,0.006 -0.24107,0.0622 -0.49609,0.125 l -0.45117,0.11914 v 0.66016 0.6582 l 0.46484,0.1211 c 0.25503,0.0628 0.47371,0.11872 0.48828,0.125 0.0583,0.0188 0.12373,0.0693 0.16016,0.11328 0.13115,0.17587 0.0222,0.40874 -0.21094,0.45898 -0.0437,0.006 -0.11696,0.006 -0.16797,0 -0.0583,-0.0126 -4.69937,-1.18903 -4.72851,-1.19531 -0.051,-0.0188 -0.0793,-0.0302 -0.12305,-0.0742 -0.0583,-0.044 -0.0811,-0.0876 -0.0957,-0.15039 -0.007,-0.0314 -0.007,-0.10141 0,-0.13281 0.007,-0.0126 0.0147,-0.0378 0.0293,-0.0566 0.0364,-0.0628 0.0873,-0.10727 0.16016,-0.13867 0.0291,-0.0126 0.46024,-0.11752 2.39844,-0.60742 1.29697,-0.32662 2.36824,-0.59766 2.38281,-0.59766 0.007,-0.006 0.0353,-0.006 0.0644,-0.006 z m -1.52344,0.99805 -0.96093,0.23828 c -0.52463,0.1319 -0.96094,0.24609 -0.96094,0.24609 0,0 0.4285,0.10596 0.95312,0.24414 l 0.96875,0.23828 v -0.24414 -0.48437 z m -35.12695,2.25976 c 0.13844,0 0.26931,0.0749 0.32031,0.18164 0.0219,0.0565 0.022,0.006 0.0293,0.67188 0,0.5653 -0.001,0.61006 0.006,0.6289 0.0219,0.0628 0.0667,0.12485 0.125,0.15625 0.0219,0.0188 0.12313,0.0634 0.42187,0.19532 0.4882,0.21355 1.06371,0.45814 1.10743,0.4707 0.051,0.0188 0.13168,0.0382 0.19726,0.0508 0.0656,0.006 0.20448,0.006 0.27735,0 0.0583,-0.0126 0.14573,-0.0319 0.18945,-0.0508 0.051,-0.0126 0.61923,-0.25715 1.10742,-0.4707 0.30603,-0.13191 0.40054,-0.17647 0.42969,-0.19532 0.051,-0.0314 0.0953,-0.0934 0.11719,-0.15625 0.007,-0.0188 0.006,-0.0636 0.0137,-0.6289 0,-0.6658 1.5e-4,-0.61535 0.0293,-0.67188 0.051,-0.10678 0.17458,-0.18164 0.32031,-0.18164 0.16759,0 0.30536,0.0997 0.34179,0.24414 0.007,0.044 0.007,1.1883 0,1.26367 -0.0437,0.27637 -0.21725,0.5196 -0.49414,0.66407 -0.051,0.0251 -1.50135,0.65456 -1.57422,0.67968 -0.13844,0.0503 -0.28448,0.087 -0.4375,0.0996 -0.0874,0.0126 -0.28313,0.0126 -0.36328,0 -0.1603,-0.0126 -0.30687,-0.0494 -0.44531,-0.0996 -0.0729,-0.0251 -1.52321,-0.65456 -1.57422,-0.67968 -0.2696,-0.14447 -0.44456,-0.38226 -0.48828,-0.65235 -0.007,-0.0502 -0.006,-0.0875 -0.006,-0.64648 0,-0.50249 -0.001,-0.60378 0.006,-0.62891 0.0292,-0.14446 0.16888,-0.24414 0.34375,-0.24414 z m 77.3457,0.43555 c 0.13845,0 0.26931,0.0749 0.32032,0.18164 0.0219,0.0565 0.022,0.0199 0.0293,0.56641 0,0.55901 -0.007,0.50903 0.0371,0.57812 0.0364,0.0628 0.006,0.0439 0.6836,0.49609 0.34246,0.2324 0.63439,0.4269 0.65625,0.43946 0.0656,0.0377 0.16113,0.069 0.25586,0.0879 l 0.0508,0.0117 h 1.00586 c 0.96181,0 1.01187,4.2e-4 1.04101,-0.006 0.0947,-0.0251 0.1829,-0.0887 0.22656,-0.16407 0.0364,-0.069 0.0293,-0.006 0.0293,-0.70898 0,-0.70976 0.007,-0.64617 -0.0293,-0.70898 -0.0364,-0.0628 -0.0951,-0.11313 -0.16796,-0.14454 -0.0729,-0.0314 -0.0428,-0.0254 -0.47266,-0.0254 l -0.38672,-0.006 v 0.30664 c 0,0.33289 3.8e-4,0.33409 -0.0215,0.39062 -0.0219,0.0377 -0.0369,0.0619 -0.0879,0.0996 -0.0437,0.044 -0.072,0.0573 -0.12305,0.0762 -0.0802,0.0251 -0.15422,0.0251 -0.23438,0 -0.051,-0.0188 -0.0793,-0.0322 -0.12304,-0.0762 -0.051,-0.0377 -0.066,-0.0619 -0.0879,-0.0996 -0.0219,-0.0565 -0.0215,-0.0382 -0.0215,-0.69141 v -0.60351 h 0.73633 c 0.70679,0 0.7352,-4.2e-4 0.80078,0.006 0.12387,0.0126 0.22664,0.0376 0.33594,0.0879 0.31332,0.1319 0.5305,0.39577 0.57422,0.69726 0.007,0.0565 0.0156,0.0821 0.0156,0.69141 0,0.68464 -1.5e-4,0.67294 -0.0293,0.77344 -0.0219,0.0942 -0.0726,0.19373 -0.13086,0.27539 -0.16759,0.23868 -0.45336,0.39633 -0.78125,0.42773 -0.0802,0.006 -2.01713,0.006 -2.11914,0 -0.22588,-0.0188 -0.45118,-0.0885 -0.64063,-0.19531 -0.0291,-0.0188 -0.3358,-0.22658 -0.68555,-0.45898 -0.44447,-0.29522 -0.64911,-0.43972 -0.68554,-0.46485 -0.17488,-0.14446 -0.28336,-0.33178 -0.3125,-0.53906 -0.007,-0.044 -0.008,-0.0888 -0.008,-0.54102 0,-0.40199 5.2e-4,-0.4905 0.008,-0.51562 0.0291,-0.14447 0.16692,-0.24414 0.34179,-0.24414 z m -61.20312,0.2168 c 0.13844,0 0.26931,0.0749 0.32031,0.18164 0.0219,0.0565 0.022,0.0199 0.0293,0.5664 0,0.55902 -0.007,0.50708 0.0371,0.57617 0.0364,0.0628 0.008,0.0458 0.68554,0.49805 0.34247,0.2324 0.63244,0.42689 0.6543,0.43945 0.0656,0.0377 0.16114,0.0691 0.25586,0.0879 l 0.0508,0.0117 h 1.00586 c 0.96181,0 1.01187,4.3e-4 1.04102,-0.006 0.0947,-0.0251 0.18284,-0.0887 0.22656,-0.16406 0.0364,-0.0691 0.0293,-0.005 0.0293,-0.70898 0,-0.70977 0.007,-0.64813 -0.0293,-0.71094 -0.0364,-0.0628 -0.0951,-0.11117 -0.16797,-0.14258 -0.0729,-0.0314 -0.0428,-0.0254 -0.47265,-0.0254 l -0.38672,-0.008 v 0.30859 c 0,0.3329 3.7e-4,0.33214 -0.0215,0.38867 -0.0219,0.0377 -0.0369,0.0639 -0.0879,0.10157 -0.0437,0.044 -0.072,0.0554 -0.12305,0.0742 -0.0801,0.0251 -0.15422,0.0251 -0.23437,0 -0.051,-0.0188 -0.0793,-0.0303 -0.12305,-0.0742 -0.051,-0.0377 -0.066,-0.0639 -0.0879,-0.10157 -0.0219,-0.0565 -0.0215,-0.0362 -0.0215,-0.68945 v -0.60351 h 0.73633 c 0.70677,0 0.7352,-4.3e-4 0.80078,0.006 0.12387,0.0125 0.22664,0.0376 0.33593,0.0879 0.31332,0.1319 0.5305,0.39577 0.57422,0.69726 0.007,0.0565 0.0156,0.0821 0.0156,0.69141 0,0.68464 -1.5e-4,0.67098 -0.0293,0.77148 -0.0219,0.0942 -0.0726,0.19569 -0.13086,0.27735 -0.16759,0.23868 -0.45141,0.39632 -0.77929,0.42773 -0.0802,0.006 -2.01909,0.006 -2.1211,0 -0.22588,-0.0188 -0.45118,-0.0885 -0.64062,-0.19531 -0.0292,-0.0188 -0.3358,-0.22659 -0.68555,-0.45899 -0.44447,-0.29521 -0.64912,-0.43972 -0.68555,-0.46484 -0.17487,-0.14447 -0.28335,-0.33179 -0.3125,-0.53906 -0.007,-0.044 -0.008,-0.0888 -0.008,-0.54102 0,-0.40199 5.3e-4,-0.4905 0.008,-0.51562 0.0292,-0.14447 0.16692,-0.24414 0.3418,-0.24414 z m 29.75391,0.20703 c 0.13844,0 0.2693,0.0749 0.32031,0.18164 0.0219,0.0565 0.022,0.006 0.0293,0.67187 0,0.5653 5.2e-4,0.61007 0.008,0.62891 0.0219,0.0628 0.0667,0.12484 0.125,0.15625 0.0219,0.0188 0.12313,0.0634 0.42187,0.19531 0.48819,0.21356 1.06371,0.45814 1.10742,0.4707 0.051,0.0188 0.13169,0.0382 0.19727,0.0508 0.0656,0.006 0.20253,0.006 0.27539,0 0.0583,-0.0126 0.14574,-0.0319 0.18945,-0.0508 0.051,-0.0126 0.62119,-0.25714 1.10938,-0.4707 0.30603,-0.1319 0.40054,-0.17647 0.42969,-0.19531 0.051,-0.0314 0.0934,-0.0934 0.11523,-0.15625 0.007,-0.0188 0.008,-0.0636 0.0156,-0.62891 0,-0.66579 1.5e-4,-0.61534 0.0293,-0.67187 0.051,-0.10678 0.17462,-0.18164 0.32031,-0.18164 0.16759,0 0.30537,0.0997 0.3418,0.24414 0.007,0.044 0.007,1.1883 0,1.26367 -0.0437,0.27637 -0.21725,0.52155 -0.49414,0.66602 -0.051,0.0251 -1.50135,0.65261 -1.57422,0.67773 -0.13844,0.0503 -0.28448,0.0871 -0.4375,0.0996 -0.0874,0.0126 -0.28508,0.0126 -0.36523,0 -0.1603,-0.0126 -0.30492,-0.0494 -0.44336,-0.0996 -0.0729,-0.0251 -1.52321,-0.65264 -1.57422,-0.67773 -0.2696,-0.14447 -0.44456,-0.38421 -0.48828,-0.6543 -0.007,-0.0503 -0.008,-0.0875 -0.008,-0.64649 0,-0.50248 5.2e-4,-0.60378 0.008,-0.6289 0.0291,-0.14447 0.16692,-0.24414 0.3418,-0.24414 z m 16.8789,0.0449 c 0.15302,-0.0126 0.25631,0.0121 0.34375,0.0937 0.0656,0.0565 0.0937,0.12733 0.0937,0.20898 0,0.0314 -0.006,0.0491 -0.0137,0.0742 -0.0219,0.0565 -0.052,0.10099 -0.0957,0.13867 -0.0656,0.0565 -0.13045,0.0758 -0.23242,0.082 -0.0437,0.006 -0.066,0.005 -0.0879,0.0117 -0.0656,0.0251 -0.11733,0.0685 -0.14648,0.125 l -0.006,0.0312 v 0.77344 0.77344 l 0.0137,0.0176 c 0.0219,0.0314 0.0724,0.038 0.10157,0.0254 0.0145,-0.006 0.7664,-0.50792 1.66992,-1.11719 0.9108,-0.60927 1.66759,-1.1183 1.68945,-1.13086 0.0947,-0.0565 0.21154,-0.0886 0.32813,-0.10742 0.38614,-0.0377 0.75736,0.17534 0.85937,0.50195 0.0292,0.0942 0.0293,0.0575 0.0293,0.91797 0,0.68464 -0.006,0.79044 -0.006,0.82813 -0.0291,0.19471 -0.12486,0.35833 -0.28516,0.49023 -0.15301,0.12562 -0.34143,0.20186 -0.55273,0.2207 -0.14573,0.0126 -0.2485,-0.007 -0.33594,-0.0762 -0.0437,-0.044 -0.0738,-0.0802 -0.0957,-0.13672 -0.007,-0.0314 -0.0137,-0.0443 -0.0137,-0.082 0,-0.0816 0.0355,-0.14422 0.0937,-0.20703 0.0729,-0.0565 0.13928,-0.0894 0.25586,-0.0957 0.0364,0 0.0582,-0.005 0.0801,-0.0117 0.0656,-0.0189 0.11734,-0.0626 0.14649,-0.11914 l 0.006,-0.0312 0.008,-0.76758 v -0.77149 l -0.0137,-0.0195 c -0.0146,-0.0314 -0.0657,-0.0497 -0.10938,-0.0371 -0.007,0.006 -0.75911,0.50793 -1.66992,1.11719 -0.91081,0.61555 -1.66759,1.12458 -1.68945,1.13086 -0.26232,0.15075 -0.59707,0.15075 -0.85938,0 -0.18945,-0.11306 -0.3146,-0.28185 -0.34375,-0.47656 -0.007,-0.0314 -0.006,-0.18983 -0.006,-0.82422 0,-0.69092 -10e-4,-0.79588 0.006,-0.83984 0.0219,-0.18844 0.11708,-0.35248 0.27734,-0.48438 0.15302,-0.12562 0.34196,-0.20772 0.56055,-0.22656 z m 31.8125,0.12109 c 2.02564,0 2.06333,-4.2e-4 2.12891,0.006 0.12387,0.0126 0.22469,0.0376 0.33398,0.0879 0.31332,0.13191 0.53246,0.39578 0.57617,0.69727 0.007,0.0565 0.0156,0.0821 0.0156,0.6914 0,0.5339 -0.008,0.63377 -0.008,0.67774 -0.0364,0.27009 -0.2123,0.50941 -0.47461,0.66016 -0.10201,0.0502 -0.23303,0.0999 -0.34961,0.125 -0.11659,0.0188 0.0231,0.0195 -2.19922,0.0195 -2.21508,0 -2.06919,-7.5e-4 -2.13477,-0.0195 -0.051,-0.0188 -0.0813,-0.0303 -0.125,-0.0742 -0.0583,-0.044 -0.0792,-0.0895 -0.0937,-0.15235 -0.007,-0.0314 -0.007,-0.0994 0,-0.13086 0.0146,-0.0314 0.0431,-0.0881 0.0723,-0.11328 0.0364,-0.044 0.10878,-0.0886 0.18164,-0.10742 0.0219,-0.006 0.1167,-0.006 2.08398,-0.006 1.96735,0 2.05484,4.2e-4 2.08399,-0.006 0.10201,-0.0251 0.18284,-0.0887 0.22656,-0.16406 0.0364,-0.0691 0.0293,-0.005 0.0293,-0.70899 0,-0.7097 0.007,-0.64617 -0.0293,-0.70898 -0.0437,-0.0817 -0.12455,-0.13894 -0.22656,-0.16406 -0.0292,-0.006 -0.11664,-0.005 -2.08399,-0.0117 -1.90899,0 -2.05483,-0.002 -2.08398,-0.008 -0.0729,-0.0189 -0.11696,-0.0439 -0.16797,-0.0879 -0.0364,-0.0377 -0.0577,-0.0619 -0.0723,-0.0996 -0.0364,-0.0817 -0.0281,-0.15663 0.0156,-0.23829 0.0437,-0.0753 0.1226,-0.13307 0.22461,-0.1582 0.0219,-0.006 0.11612,-0.006 2.07617,-0.006 z m -60.2832,0.20703 c 0.14573,0 0.24046,0.008 0.37891,0.0391 0.16756,0.0377 0.18211,0.0439 1.02734,0.4082 0.40804,0.17587 0.76525,0.33119 0.78711,0.34375 0.0947,0.0503 0.19614,0.1258 0.26172,0.20117 0.12387,0.1319 0.2047,0.2894 0.22656,0.45899 0.007,0.0565 0.006,0.0823 0.006,0.66015 v 0.60156 l -0.006,0.0332 c -0.051,0.1319 -0.18292,0.21875 -0.33594,0.21875 -0.1603,0 -0.29081,-0.0869 -0.34179,-0.21875 -0.007,-0.0251 -0.008,-0.0379 -0.008,-0.20117 v -0.16993 h -1.99609 -1.99609 l -0.008,0.16993 c 0,0.1633 -5.2e-4,0.17604 -0.008,0.20117 -0.0292,0.0879 -0.10254,0.15567 -0.19727,0.19336 -0.0874,0.0314 -0.19576,0.0314 -0.2832,0 -0.10201,-0.044 -0.18126,-0.13235 -0.20312,-0.22657 v -0.60742 c 0,-0.50877 -10e-4,-0.60447 0.006,-0.64844 0.0364,-0.27006 0.21868,-0.52155 0.48828,-0.66601 0.0219,-0.0126 0.37959,-0.16788 0.79492,-0.34375 0.83794,-0.3643 0.85247,-0.37052 1.02734,-0.4082 0.13116,-0.0314 0.22589,-0.0391 0.37891,-0.0391 z m 0.0644,0.60352 c -0.12387,-0.006 -0.23302,-5.8e-4 -0.34961,0.0371 -0.051,0.0126 -0.10893,0.0384 -0.40039,0.16406 -1.07111,0.4648 -1.15054,0.50264 -1.17969,0.52149 -0.0583,0.0377 -0.10314,0.0934 -0.125,0.15625 -0.007,0.0188 -0.006,0.0451 -0.006,0.1582 l -0.008,0.13086 h 2.00391 1.99609 v -0.13086 c -0.007,-0.15075 -0.008,-0.15874 -0.0371,-0.20899 -0.0219,-0.044 -0.0573,-0.0803 -0.0937,-0.10546 -0.0364,-0.0188 -0.11639,-0.0567 -1.1875,-0.52149 -0.29146,-0.12562 -0.3421,-0.1515 -0.40039,-0.16406 -0.0729,-0.0251 -0.13274,-0.0308 -0.21289,-0.0371 z m -33.78711,2.6543 h 0.64844 l 1.80078,0.60351 c 0.99096,0.3329 1.80521,0.6031 1.8125,0.60938 0.0364,0.0126 0.0744,0.0374 0.10352,0.0625 0.1603,0.15074 0.10193,0.38862 -0.10938,0.47656 -0.0146,0.006 -0.80862,0.27774 -1.75586,0.5918 l -1.79297,0.60156 -0.0508,0.0195 h -0.63476 c -0.68493,0 -0.66294,-6.9e-4 -0.72852,-0.0195 -0.051,-0.0188 -0.0793,-0.0302 -0.12305,-0.0742 -0.0583,-0.044 -0.0811,-0.0876 -0.0957,-0.15039 -0.007,-0.0314 -0.007,-0.10141 0,-0.13281 0.007,-0.0126 0.0147,-0.0378 0.0293,-0.0566 0.0364,-0.0628 0.0873,-0.10727 0.16015,-0.13868 0.0729,-0.0314 0.0147,-0.0312 0.67774,-0.0312 h 0.58984 l 1.30469,-0.43945 c 0.72136,-0.24496 1.30469,-0.43945 1.30469,-0.43945 -0.007,-0.006 -0.59843,-0.20035 -1.3125,-0.44531 l -1.31055,-0.43946 h -0.56055 c -0.61206,0 -0.59848,-6.9e-4 -0.66406,-0.0195 -0.051,-0.0126 -0.0793,-0.0307 -0.12305,-0.0684 -0.0437,-0.0377 -0.0655,-0.0697 -0.0801,-0.10742 -0.0364,-0.0817 -0.0301,-0.15663 0.0137,-0.23828 0.0364,-0.0565 0.0873,-0.10769 0.16015,-0.13281 0.0729,-0.0314 0.008,-0.0312 0.73633,-0.0312 z m 81.45703,0.43554 c 0.22588,0 0.39228,0.18852 0.33399,0.37696 -0.0292,0.0942 -0.10893,0.16976 -0.21094,0.20117 -0.0219,0.006 -0.24107,0.0641 -0.49609,0.12695 l -0.45118,0.11914 v 0.65821 0.66015 l 0.4668,0.11914 c 0.25503,0.0628 0.47371,0.12072 0.48828,0.12695 0.0583,0.0188 0.12373,0.0674 0.16016,0.11133 0.13116,0.17587 0.0222,0.40874 -0.21094,0.45899 -0.0437,0.006 -0.11696,0.006 -0.16797,0 -0.0583,-0.0126 -4.69937,-1.18708 -4.72851,-1.19336 -0.051,-0.0189 -0.0813,-0.0303 -0.125,-0.0742 -0.0583,-0.044 -0.0792,-0.0895 -0.0937,-0.15234 -0.007,-0.0314 -0.007,-0.0995 0,-0.13086 0.007,-0.0126 0.0147,-0.0378 0.0293,-0.0566 0.0364,-0.0628 0.0873,-0.10727 0.16016,-0.13868 0.0292,-0.0126 0.45834,-0.11945 2.39648,-0.60937 1.29699,-0.32662 2.36824,-0.5957 2.38282,-0.5957 0.007,-0.006 0.0373,-0.008 0.0664,-0.008 z m -63.55078,0.2168 c 0.14573,0 0.24047,0.008 0.37891,0.0391 0.16759,0.0377 0.18407,0.0439 1.0293,0.40821 0.40804,0.17587 0.76329,0.33314 0.78515,0.3457 0.0947,0.0503 0.1981,0.12384 0.26367,0.19922 0.12387,0.1319 0.20275,0.28939 0.22461,0.45898 0.007,0.0565 0.008,0.0823 0.008,0.66016 v 0.60351 l -0.008,0.0312 c -0.051,0.13191 -0.18097,0.21875 -0.33398,0.21875 -0.1603,0 -0.29275,-0.0868 -0.34375,-0.21875 -0.007,-0.0251 -0.006,-0.0379 -0.006,-0.20117 v -0.16992 h -1.99805 -1.99609 l -0.006,0.16992 c 0,0.16331 -5.3e-4,0.17605 -0.008,0.20117 -0.0291,0.0879 -0.10254,0.15568 -0.19727,0.19336 -0.0874,0.0314 -0.19576,0.0314 -0.2832,0 -0.10201,-0.044 -0.18322,-0.13039 -0.20508,-0.22461 v -0.60937 c 0,-0.50877 5.3e-4,-0.60447 0.008,-0.64844 0.0364,-0.27009 0.21868,-0.5196 0.48828,-0.66406 0.0219,-0.0126 0.37764,-0.16983 0.79297,-0.3457 0.83794,-0.36431 0.85442,-0.37052 1.0293,-0.40821 0.13116,-0.0314 0.22394,-0.0391 0.37695,-0.0391 z m 27.9043,0.20703 c 0.15301,-0.0126 0.25436,0.0121 0.3418,0.0937 0.0656,0.0565 0.0957,0.12733 0.0957,0.20899 0,0.0314 -0.008,0.0491 -0.0156,0.0742 -0.0218,0.0565 -0.05,0.10099 -0.0937,0.13868 -0.0656,0.0565 -0.13236,0.0757 -0.23437,0.082 -0.0437,0.006 -0.0641,0.005 -0.0859,0.0117 -0.0656,0.0251 -0.11734,0.0685 -0.14648,0.125 l -0.008,0.0332 v 0.77148 0.77344 l 0.0156,0.0176 c 0.0219,0.0314 0.0724,0.038 0.10156,0.0254 0.0146,-0.006 0.76445,-0.50792 1.66797,-1.11719 0.91081,-0.60926 1.66955,-1.11829 1.69141,-1.13086 0.0947,-0.0565 0.21154,-0.0886 0.32812,-0.10742 0.38618,-0.0377 0.75737,0.17729 0.85938,0.50391 0.0291,0.0942 0.0293,0.0555 0.0293,0.91601 0,0.68464 -0.008,0.79239 -0.008,0.83008 -0.0291,0.19472 -0.1229,0.35638 -0.2832,0.48828 -0.15302,0.12562 -0.34338,0.20186 -0.55469,0.22071 -0.14573,0.0126 -0.24655,-0.007 -0.33398,-0.0762 -0.0437,-0.044 -0.0739,-0.0802 -0.0957,-0.13671 -0.007,-0.0314 -0.0137,-0.0444 -0.0137,-0.082 0,-0.0816 0.0355,-0.14422 0.0937,-0.20703 0.0729,-0.0565 0.13928,-0.0894 0.25586,-0.0957 0.0364,0 0.0582,-0.005 0.0801,-0.0117 0.0656,-0.0188 0.11538,-0.0626 0.14453,-0.11914 l 0.008,-0.0312 0.008,-0.76758 v -0.77148 l -0.0156,-0.0195 c -0.0146,-0.0314 -0.0657,-0.0497 -0.10937,-0.0371 -0.007,0.006 -0.75717,0.50792 -1.66797,1.11718 -0.91081,0.61555 -1.6676,1.12458 -1.68946,1.13086 -0.26231,0.15075 -0.59901,0.15075 -0.86132,0 -0.18945,-0.11306 -0.31266,-0.28184 -0.3418,-0.47656 -0.007,-0.0314 -0.008,-0.1879 -0.008,-0.82226 0,-0.69092 5.2e-4,-0.79783 0.008,-0.8418 0.0219,-0.18843 0.11704,-0.35247 0.27734,-0.48438 0.15302,-0.12562 0.34196,-0.20772 0.56055,-0.22656 z m 15.88867,0.0469 c 0.16759,0 0.30537,0.0997 0.3418,0.24414 0,0.0251 0.008,0.18858 0.008,1.07422 v 1.04296 h 0.52344 0.5332 v -0.75976 l 0.006,-0.76172 0.008,-0.0312 c 0.0364,-0.1005 0.11727,-0.16934 0.22657,-0.20703 0.0437,-0.006 0.0511,-0.0117 0.10937,-0.0117 0.0656,0 0.0657,0.005 0.10938,0.0117 0.10929,0.0377 0.18817,0.10653 0.22461,0.20703 l 0.0156,0.0312 v 0.76172 0.75976 h 1.32617 c 1.25327,0 1.31851,-4.2e-4 1.34766,0.006 0.0364,0.0126 0.10171,0.0437 0.13086,0.0625 0.0364,0.0251 0.066,0.0639 0.0879,0.10157 0.0437,0.0754 0.0506,0.15076 0.0215,0.23242 -0.0219,0.044 -0.0442,0.0678 -0.0879,0.10547 -0.0437,0.044 -0.072,0.0573 -0.12305,0.0762 -0.0655,0.0188 0.12395,0.0176 -2.62304,0.0176 h -2.53516 v -1.34375 c 0,-1.14316 -0.001,-1.34988 0.006,-1.375 0.0291,-0.14447 0.16888,-0.24414 0.34375,-0.24414 z m 32.59766,0.11914 c 0.16941,-0.006 0.34048,0.01 0.51172,0.0508 0.12387,0.0314 0.15266,0.0447 0.96875,0.39648 0.43718,0.18844 0.80822,0.35072 0.83007,0.36328 0.0656,0.0314 0.11697,0.0694 0.16797,0.11328 0.28417,0.23241 0.35704,0.59695 0.18946,0.89844 -0.0729,0.13191 -0.18826,0.24494 -0.33399,0.32032 -0.051,0.0313 -1.60487,0.69753 -1.67773,0.72265 -0.13116,0.044 -0.26052,0.0753 -0.40625,0.0879 -0.0874,0.0126 -0.28509,0.0126 -0.36524,0 -0.15301,-0.0126 -0.28486,-0.0439 -0.41601,-0.0879 -0.0729,-0.0251 -1.61749,-0.69131 -1.67578,-0.72265 -0.17488,-0.0942 -0.31333,-0.24448 -0.37891,-0.41407 -0.0219,-0.0565 -0.0279,-0.0939 -0.0352,-0.15039 -0.007,-0.0188 -0.008,-0.0628 -0.008,-0.0879 -0.007,-0.27637 0.16843,-0.53522 0.44531,-0.67969 0.0219,-0.0126 0.40018,-0.17527 0.83008,-0.35742 0.5902,-0.25752 0.80056,-0.34639 0.85156,-0.36523 0.16395,-0.0534 0.33255,-0.0816 0.50196,-0.0879 z m -62.42578,0.20898 c 0.15301,-0.0126 0.25631,0.0121 0.34375,0.0937 0.0656,0.0565 0.0937,0.12538 0.0937,0.20703 0,0.0314 -0.006,0.051 -0.0137,0.0762 -0.0218,0.0565 -0.052,0.099 -0.0957,0.13672 -0.0656,0.0565 -0.13041,0.0758 -0.23242,0.082 -0.0437,0.006 -0.066,0.007 -0.0879,0.0137 -0.0656,0.0251 -0.11734,0.0685 -0.14649,0.125 l -0.006,0.0312 v 0.77148 0.77344 l 0.0137,0.0195 c 0.0219,0.0314 0.0724,0.038 0.10156,0.0254 0.0146,-0.006 0.7664,-0.50987 1.66992,-1.11914 0.91081,-0.60927 1.6676,-1.1183 1.68945,-1.13086 0.0947,-0.0565 0.21155,-0.0866 0.32813,-0.10547 0.38618,-0.0377 0.75736,0.17534 0.85937,0.50195 0.0292,0.0942 0.0293,0.0555 0.0293,0.91602 0,0.68464 -0.008,0.79239 -0.008,0.83008 -0.0292,0.19471 -0.1229,0.35833 -0.2832,0.49023 -0.15302,0.12562 -0.34338,0.19991 -0.55469,0.21875 -0.14573,0.0126 -0.24655,-0.005 -0.33399,-0.0742 -0.0437,-0.044 -0.0738,-0.0821 -0.0957,-0.13867 -0.007,-0.0314 -0.0137,-0.0443 -0.0137,-0.082 0,-0.0817 0.0355,-0.14422 0.0937,-0.20703 0.0729,-0.0565 0.13927,-0.0875 0.25586,-0.0937 0.0364,0 0.0582,-0.007 0.0801,-0.0137 0.0656,-0.0188 0.11733,-0.0626 0.14648,-0.11914 l 0.006,-0.0312 0.008,-0.76563 v -0.77344 l -0.0137,-0.0176 c -0.0146,-0.0314 -0.0657,-0.0516 -0.10937,-0.0391 -0.007,0.006 -0.75912,0.50988 -1.66993,1.11914 -0.9108,0.61555 -1.66759,1.12458 -1.68945,1.13086 -0.26231,0.15075 -0.59706,0.15075 -0.85937,0 -0.18945,-0.11306 -0.31461,-0.2838 -0.34375,-0.47851 -0.007,-0.0314 -0.006,-0.18788 -0.006,-0.82227 0,-0.69092 -10e-4,-0.79783 0.006,-0.84179 0.0219,-0.18844 0.11704,-0.35248 0.27734,-0.48438 0.15301,-0.12562 0.34195,-0.20577 0.56055,-0.22461 z m -13.89844,0.0215 c -0.12387,-0.006 -0.23303,-5.8e-4 -0.34961,0.0371 -0.051,0.0125 -0.10893,0.0384 -0.40039,0.16406 -1.07111,0.4648 -1.1525,0.50264 -1.18164,0.52148 -0.0583,0.0377 -0.10119,0.0934 -0.12305,0.15625 -0.007,0.0188 -0.008,0.0451 -0.008,0.15821 l -0.006,0.13085 h 2.00195 1.99805 v -0.13085 c -0.007,-0.15075 -0.008,-0.15679 -0.0371,-0.20704 -0.0219,-0.044 -0.0573,-0.0823 -0.0937,-0.10742 -0.0364,-0.0188 -0.11834,-0.0567 -1.18945,-0.52148 -0.29146,-0.12562 -0.3421,-0.15151 -0.40039,-0.16406 -0.0729,-0.0251 -0.13079,-0.0308 -0.21094,-0.0371 z m 61.96094,0.17968 -0.96289,0.23828 c -0.52463,0.13191 -0.96094,0.24414 -0.96094,0.24415 0,-1e-5 0.43045,0.1079 0.95508,0.24609 l 0.96875,0.23828 v -0.24414 -0.48438 z m 14.35742,0.19336 c -0.0802,0.006 -0.13079,0.012 -0.21094,0.0371 -0.051,0.0126 -0.10946,0.0384 -0.4082,0.16406 l -0.7793,0.33985 c -0.42261,0.18215 -0.44494,0.18776 -0.4668,0.21289 -0.0291,0.0251 -0.044,0.0506 -0.0586,0.082 -0.0146,0.0628 0.008,0.12553 0.0586,0.17578 0.0292,0.0188 0.0721,0.0375 0.80079,0.35156 0.42255,0.18216 0.78673,0.33943 0.80859,0.34571 0.051,0.0126 0.12387,0.0304 0.18945,0.043 0.0583,0.006 0.21177,0.006 0.27735,0 0.0583,-0.0126 0.13063,-0.0304 0.18164,-0.043 0.0219,-0.006 0.38793,-0.16355 0.81054,-0.34571 0.76508,-0.32661 0.77893,-0.33229 0.80078,-0.35742 0.0292,-0.0251 0.0513,-0.0506 0.0586,-0.082 0.0146,-0.0628 -0.008,-0.12595 -0.0586,-0.16992 -0.0218,-0.0251 -0.0442,-0.0307 -0.46679,-0.21289 l -0.7793,-0.33985 c -0.29874,-0.12562 -0.34991,-0.1515 -0.4082,-0.16406 -0.11659,-0.0377 -0.22574,-0.0434 -0.34961,-0.0371 z" /><rect
     style="fill:#000000;stroke:#000000;stroke-width:1.62242;stroke-linejoin:bevel;stroke-opacity:1;paint-order:stroke fill markers"
     id="rect5992"
     width="13.943696"
     height="16.33543"
     x="280.86194"
     y="416.75604" /><rect
     style="fill:#808080;stroke:#000000;stroke-width:1.50235;stroke-linejoin:bevel;stroke-opacity:0;paint-order:stroke fill markers"
     id="rect6773"
     width="8.0376358"
     height="10.608761"
     x="263.86945"
     y="419.12997" /><g
     id="g572"><rect
       id="rect28-6"
       x="230.07652"
       y="458.16757"
       fill="#8c8c8c"
       width="8.7897768"
       height="8.6667213"
       style="stroke-width:2.7078" /><rect
       id="rect28-6-1"
       x="246.05807"
       y="458.41537"
       fill="#8c8c8c"
       width="8.7897768"
       height="8.6667213"
       style="stroke-width:2.7078" /><rect
       id="rect28-6-1-6"
       x="261.59418"
       y="458.52133"
       fill="#8c8c8c"
       width="8.7897768"
       height="8.6667213"
       style="stroke-width:2.7078" /><rect
       id="rect28-6-6"
       x="276.34268"
       y="458.34445"
       fill="#8c8c8c"
       width="8.7897768"
       height="8.6667213"
       style="stroke-width:2.7078" /><rect
       id="rect28-6-1-4"
       x="292.32422"
       y="458.59225"
       fill="#8c8c8c"
       width="8.7897768"
       height="8.6667213"
       style="stroke-width:2.7078" /><rect
       id="rect28-6-1-6-4"
       x="307.86032"
       y="458.69821"
       fill="#8c8c8c"
       width="8.7897768"
       height="8.6667213"
       style="stroke-width:2.7078" /><rect
       id="rect28-6-1-6-4-5"
       x="323.92694"
       y="458.73297"
       fill="#8c8c8c"
       width="8.7897768"
       height="8.6667213"
       style="stroke-width:2.7078" /></g><text
     xml:space="preserve"
     style="font-style:normal;font-variant:normal;font-weight:normal;font-stretch:normal;font-size:6.76514px;font-family:OCRA;-inkscape-font-specification:'OCRA, Normal';font-variant-ligatures:normal;font-variant-caps:normal;font-variant-numeric:normal;font-variant-east-asian:normal;direction:rtl;fill:#ffffff;stroke:#000000;stroke-width:0.415301;stroke-linejoin:bevel;stroke-dasharray:none;stroke-opacity:0;paint-order:stroke fill markers"
     x="285.21359"
     y="387.30783"
     id="text9337"
     transform="scale(0.94398746,1.0593361)"><tspan
       sodipodi:role="line"
       x="285.21359"
       y="387.30783"
       id="tspan9339"
       style="font-style:normal;font-variant:normal;font-weight:normal;font-stretch:normal;font-size:6.76513px;font-family:OCRA;-inkscape-font-specification:'OCRA, Normal';font-variant-ligatures:normal;font-variant-caps:normal;font-variant-numeric:normal;font-variant-east-asian:normal;writing-mode:lr-tb;direction:ltr;fill:#ffffff;stroke-width:0.415301">AD9833</tspan></text></g>
</svg>
